<?xml version="1.0" encoding="utf-8"?>
<!-- Generator: Adobe Illustrator 24.2.0, SVG Export Plug-In . SVG Version: 6.00 Build 0)  -->
<svg version="1.1" id="bc260676-f3ef-4f7e-a5a1-7c4c09c1aff5"
	 xmlns="http://www.w3.org/2000/svg" xmlns:xlink="http://www.w3.org/1999/xlink" x="0px" y="0px" viewBox="0 0 1080 1080"
	 style="enable-background:new 0 0 1080 1080;" xml:space="preserve">
<style type="text/css">
	.st0{fill:#009DC8;}
	.st1{fill:#015989;}
	.st2{fill:#FFC107;}
	.st3{fill:#FFA000;}
	.st4{fill:#8D6E63;}
</style>
<g>
	<path class="st0" d="M408.5,251.8c-18.1-8.7-30.7-8.7-30.7-8.7L25,347.1c-15.8,7.9-11,14.2-11,14.2L173,433.7l367-122.9
		C540,310.8,430.4,262.2,408.5,251.8z"/>
	<path class="st0" d="M671.5,251.8c18.1-8.7,30.7-8.7,30.7-8.7l352.8,104c15.8,7.9,11,14.2,11,14.2L907,433.7L540,310.8
		C540,310.8,649.6,262.2,671.5,251.8z"/>
	<polygon class="st1" points="174.6,432.9 540,310 905.4,432.9 540,557.3 	"/>
	<g>
		<path class="st2" d="M723.8,587.9C640.6,683,527.2,739.4,407.1,745.1c-50.7,3.9-101.3-11.2-143-43.2c-9.1-6.1-19.2-12.8-31.2-19.8
			c-4.4-2.7-7.2-7.9-7.2-13.4v-30.6c0-0.6,0-1.1,0.2-1.7c0.8-7.6,6.6-13.5,13.9-13.5c189-0.3,404.5-171,404.5-320.8
			c0-107.7-24.6-157.5-64.6-201.6c-0.3-0.5-0.8-0.9-1.1-1.3c-0.6-0.8-1.3-1.4-1.7-2.4c0-0.2-0.2-0.3-0.2-0.5
			c5,3.8,10.9,6.3,17.3,7.1c2.7,0.3,5.5,0.3,8.2,0c20.8,2.5,39.5-14,41.9-36.7c0.3-3,0.3-6,0-9c0-2.5-0.3-5-0.8-7.6
			c11.2,10.6,24.3,18.3,38.3,22.8c27.6,9.3,52.1,27.1,70.7,51.2c33.7,40.8,54.5,92.6,59.1,147.4c0,2.2,0.2,5.4,0.2,9.5
			C815.9,416.2,786.3,519.4,723.8,587.9z"/>
		<path class="st3" d="M644.3,302c0,149.8-215.5,320.5-404.5,320.8c-7.1,0-13.1,6-13.9,13.5v-28.8c0-2.8,0.8-5.7,2.2-8.2
			c2.7-4.7,31.2-48.4,175-98.1c116.1-40.3,185.5-126.2,185.5-229.8c0-19.4,0.3-37.8,0.6-55c0.2-13.9,0.5-27.7,0.5-40.6
			c0-35.1-1.7-64.4-9.9-75.6C619.5,144.7,644.3,194.3,644.3,302z"/>
		<path class="st4" d="M644.1,66.7c-2.4,22.8-20.9,39.2-41.9,36.7c-2.7,0.3-5.5,0.3-8.2,0c-6.5-0.8-12.4-3.3-17.3-7.1
			c-11-8.3-17.8-23-16.2-38.7c0-3.2-0.3-6.1-0.8-9.1c-2.4-9.3-0.8-19.4,4.3-27.2c6.5-6.9,15.4-10.4,24.4-9.5
			c28.2,0,50.9,16.2,55.1,38.3c0.5,2.5,0.8,5,0.8,7.6C644.4,60.6,644.4,63.7,644.1,66.7z"/>
	</g>
	<path class="st1" d="M906.2,587.1v332.2c0,13.1-7.9,24.4-19.2,28l-338,119.2c-1.1,0.6-1.7,0.6-2.8,1.3c-2.2,0.6-3.9,0.6-6.1,0.6
		c-2.2,0-3.9,0-6.1-0.6c-0.6-0.6-1.7-0.6-2.8-1.3L193,947.3c-11.3-3.6-19.2-15-19.2-28V587.1c0-16.7,12.4-29.8,28.2-29.8h676
		C893.8,557.3,906.2,570.4,906.2,587.1z"/>
	<path class="st0" d="M64,586.9c-10.4,17.2-2.8,40.5,15.1,46.6l328.1,111c12,3.9,24.9-0.9,31.7-12.4c33.7-58.3,67.4-116.6,101-174.8
		c-122.1-41.1-244.9-82.5-367-123.8C136.5,484.6,100.7,535.9,64,586.9z"/>
	<path class="st0" d="M1016,586.9c10.4,17.2,2.8,40.5-15.1,46.6l-328.1,111c-12,3.9-24.9-0.9-31.7-12.4
		c-33.7-58.3-67.4-116.6-101-174.8c122.1-41.1,244.9-82.5,367-123.8C943.5,484.6,979.3,535.9,1016,586.9z"/>
</g>
</svg>
