<svg id="e304bf7d-4efa-4315-a6fa-3eb2a88ed408" data-name="Capa 1" xmlns="http://www.w3.org/2000/svg" viewBox="0 0 50 50"><path d="M27.56,0c.92.15,1.85.28,2.77.47,6.38,1.3,12,4,15.81,9.6,3.09,4.58,4,9.82,3.84,15.25a30.25,30.25,0,0,1-3.09,13C44,44,39.22,47.1,33.51,48.8,25.89,51.06,18.38,50,11.32,46.58,5.07,43.52,2.07,37.87.59,31.14-2.28,18.13,5.33,2.2,23.34.23A11.5,11.5,0,0,0,24.48,0ZM41.92,8.81c0,1.12,0,2.25,0,3.36a6,6,0,0,1-1.8,4.08A7.07,7.07,0,0,1,33.63,18a1.51,1.51,0,0,0-1.78.89,17.44,17.44,0,0,1-3.1,4c-2.4,2-5.17,2.9-8,1.4a53.92,53.92,0,0,1-3.39,5.18,6.91,6.91,0,0,1-8,2A7,7,0,0,1,4.87,25a5.92,5.92,0,0,1,3.85-5.53,4.94,4.94,0,0,1,5.47,1.06,5.1,5.1,0,0,1,1.12,5.34,3,3,0,0,1-3.17,1.81A2.29,2.29,0,0,1,9.85,25.8,2.89,2.89,0,0,1,10.42,24a1.37,1.37,0,0,1,1.34-.15,4.27,4.27,0,0,1,.5,1.64c.08.32.1.9.22.92a1.59,1.59,0,0,0,1.07-.21,2.72,2.72,0,0,0,.65-3.48,3.76,3.76,0,0,0-3.58-2.12A3.74,3.74,0,0,0,7,22.5c-1,1.8-.59,4.33,1.07,6.35a4.46,4.46,0,0,0,5.22,1.43,8.41,8.41,0,0,0,5.15-9c-.57-4-3.45-6.83-7.22-7-4.17-.2-7.75,2.25-8.54,6.07A25.74,25.74,0,0,0,2.23,26c.09,4.13,1.21,5.59,5,7a10.36,10.36,0,0,0,2.17.57,16.82,16.82,0,0,0,13.76-4c2-1.72,3.85-3.67,5.84-5.43,4.86-4.29,10.34-6.84,17-6.08a5.08,5.08,0,0,0,1-.1A18.83,18.83,0,0,0,41.92,8.81ZM3.51,34.74a7.92,7.92,0,0,0,6.82,5.38A19.08,19.08,0,0,0,20.3,39c4.4-1.71,7.94-4.66,11.21-8,3.68-3.77,8-6.25,13.33-6.37a18.84,18.84,0,0,0,2.12,0,1.12,1.12,0,0,0,.79-.73c.26-2.49-.29-3.11-2.74-3.27l-.59,0c-3.42-.22-6.79-.08-9.8,1.9A36.51,36.51,0,0,0,31.15,25c-2.44,2.08-4.78,4.3-7.24,6.37-3.8,3.21-8.15,5.07-13.15,4.7A67.2,67.2,0,0,1,3.51,34.74ZM9,42.41a5.67,5.67,0,0,0,.66.71A16.64,16.64,0,0,0,29,42.38c1.7-1.43,3.25-3,4.91-4.51,3-2.69,6.27-5,10.35-5.71,1-.17,2.21-.06,2.74-.64s.39-1.9.63-2.87c.28-1.13-.21-1.52-1.21-1.68a12.63,12.63,0,0,0-7,.82c-3.14,1.29-5.56,3.6-7.95,5.93C25.33,39.78,18.22,43.45,9,42.41ZM5.21,12.92l.15.21,1.1-.31c3.61-1,7.13-1.24,10.42,1.1.27.19.92,0,1.3-.19A18.7,18.7,0,0,1,21.35,12a5.4,5.4,0,0,1,7,5.78,3.48,3.48,0,0,1-3.67,3.16,3.07,3.07,0,0,1-2.8-3.27c.08-.74.33-1.36,1.22-1.3s1.11.64,1.16,1.39c0,.24-.06.48-.07.72,0,.93.4,1.23,1.27.9a2.61,2.61,0,0,0,1-4.1c-1.48-2.15-5.32-2.42-7-.38a2.65,2.65,0,0,0-.37,2,35.76,35.76,0,0,0,1.25,3.88A3,3,0,0,0,23.43,23a6.56,6.56,0,0,0,6.77-6.78c0-6.52-6.45-11.81-13.1-10.85a17.44,17.44,0,0,0-9.64,5.2C6.68,11.33,6,12.13,5.21,12.92Zm14.5-9.73a1.32,1.32,0,0,0,.38.18,14.73,14.73,0,0,1,9,4.58,1.2,1.2,0,0,0,1.14.14,6.76,6.76,0,0,1,5.23-.86,4.61,4.61,0,0,1,3.44,5.36A3.17,3.17,0,0,1,35.52,15,2.51,2.51,0,0,1,33,12.6,3.09,3.09,0,0,1,33.57,11c.08-.14.84-.13.92,0a8.37,8.37,0,0,1,.41,1.45c.15.44.29,1.08.61,1.23a1.55,1.55,0,0,0,1.36-.25,2.29,2.29,0,0,0,.35-3A4.09,4.09,0,0,0,31.5,9.32,1.87,1.87,0,0,0,31,10.85a19.18,19.18,0,0,0,1.27,3.86,3.15,3.15,0,0,0,1.57,1.46c3.6,1.43,6.84-1.1,6.42-5s-2.7-6.09-6.1-7.38c-4.58-1.74-9.29-1.39-14-.87C20,2.92,19.9,3.06,19.71,3.19ZM46.19,34.4c-.52,0-.94,0-1.36,0a12.22,12.22,0,0,0-6.68,2.76c-1.55,1.23-3,2.62-4.46,3.93l-7.46,6.58C33.65,48.9,45,41.63,46.19,34.4Z" style="stroke:blue;stroke-miterlimit:10;stroke-width:0.25px"/></svg>