<?xml version="1.0" encoding="utf-8"?>
<!-- Generator: Adobe Illustrator 24.1.3, SVG Export Plug-In . SVG Version: 6.00 Build 0)  -->
<svg version="1.1" id="Capa_1" xmlns="http://www.w3.org/2000/svg" xmlns:xlink="http://www.w3.org/1999/xlink" x="0px" y="0px"
	 viewBox="0 0 1280 1280" style="enable-background:new 0 0 1280 1280;" xml:space="preserve">
<style type="text/css">
	.st0{fill:#FFFFFF;}
</style>
<g transform="translate(0.000000,1280.000000) scale(0.100000,-0.100000)">
	<path class="st0" d="M3035,12789c-144-13-390-55-540-94c-1169-301-2089-1221-2390-2390c-40-157-81-397-95-560C4,9667,0,8489,0,6399
		c0-3508-2-3362,55-3675c157-855,646-1617,1358-2118C1911,256,2471,57,3090,10c214-16,6632-9,6750,8c576,82,1009,238,1444,519
		c193,125,323,230,509,413c320,312,548,637,722,1033c134,302,211,587,267,977c17,118,24,6536,8,6750c-45,585-225,1118-541,1595
		c-503,760-1282,1276-2173,1440c-313,57-163,55-3695,54C4596,12798,3090,12793,3035,12789z M9740,11690c927-114,1678-775,1905-1675
		c69-274,65-29,65-3620c0-2856-2-3258-15-3362c-50-379-194-738-423-1047c-96-130-328-362-458-458c-309-229-668-373-1047-423
		c-104-13-506-15-3362-15c-3591,0-3346-4-3620,65c-903,228-1571,990-1675,1914c-8,68-10,1065-8,3386l3,3290l28,138
		c162,811,724,1453,1494,1707c132,43,345,91,463,103C3181,11703,9661,11699,9740,11690z"/>
	<path class="st0" d="M9785,10656c-278-65-491-272-559-547c-23-93-21-255,4-353c110-432,583-666,995-493c111,46,253,160,316,253
		c175,258,173,598-6,849c-89,125-211,215-362,268c-75,26-106,30-208,33C9887,10669,9824,10665,9785,10656z"/>
	<path class="st0" d="M6195,9574c-786-62-1494-384-2039-930c-504-503-813-1135-913-1864c-24-177-24-596,1-775
		c71-521,231-950,511-1370c436-655,1087-1123,1837-1320c470-123,982-137,1457-39c612,126,1160,422,1606,869
		c507,507,815,1133,912,1855c22,167,25,590,5,750c-94,744-404,1383-922,1900c-500,499-1139,811-1855,905
		C6681,9571,6301,9582,6195,9574z M6595,8599c428-36,853-207,1195-479c113-91,299-283,386-400c224-300,361-628,421-1005
		c24-154,24-487,0-644c-152-971-897-1716-1868-1868c-153-24-499-24-647,0c-732,118-1341,565-1662,1220c-332,676-298,1470,91,2114
		c177,292,460,575,752,752C5662,8530,6132,8639,6595,8599z"/>
</g>
</svg>
