<?xml version="1.0" encoding="utf-8"?>
<!-- Generator: Adobe Illustrator 24.1.3, SVG Export Plug-In . SVG Version: 6.00 Build 0)  -->
<svg version="1.1" id="Capa_2" xmlns="http://www.w3.org/2000/svg" xmlns:xlink="http://www.w3.org/1999/xlink" x="0px" y="0px"
	 viewBox="0 0 256 256" style="enable-background:new 0 0 256 256;" xml:space="preserve">
<style type="text/css">
	.st0{fill:#01878C;}
	.st1{fill:url(#SVGID_1_);}
	.st2{fill:url(#SVGID_2_);}
	.st3{fill:#FFFFFF;}
</style>
<g>
	<g>
		<circle class="st0" cx="128" cy="128.25" r="127.75"/>
	</g>
	<linearGradient id="SVGID_1_" gradientUnits="userSpaceOnUse" x1="128.3395" y1="88.7794" x2="129.104" y2="0.866">
		<stop  offset="0" style="stop-color:#02797E"/>
		<stop  offset="1" style="stop-color:#6EB2B5"/>
	</linearGradient>
	<path class="st1" d="M255.75,127.75c0,0.66,0,1.34-0.02,2C254.67,60.1,197.9,3.99,128,3.99S1.33,60.1,0.27,129.75
		c-0.02-0.66-0.02-1.34-0.02-2C0.25,57.19,57.44,0,128,0S255.75,57.19,255.75,127.75z"/>
	<g>
		<radialGradient id="SVGID_2_" cx="128" cy="128.2495" r="117.271" gradientUnits="userSpaceOnUse">
			<stop  offset="0" style="stop-color:#01ABB2"/>
			<stop  offset="1" style="stop-color:#009399"/>
		</radialGradient>
		<circle class="st2" cx="128" cy="128.25" r="117.27"/>
	</g>
	<g>
		<path class="st3" d="M163.5,79.11c0.04-0.07,0.1-0.12,0.14-0.19c1.61-2.67,3.12-5.4,4.69-8.1c2.79,0.26,5.66-0.02,8.25-0.78
			c4.01-1.18,7.79-3.56,10.41-6.84c2.98-3.75,4.58-7.82,5.08-12.58c0.36-3.5-3.34-6.86-6.71-6.71c-3.94,0.18-6.31,2.96-6.71,6.71
			c0.02-0.21,0.05-0.43,0.08-0.59c-0.01,0.08-0.03,0.16-0.05,0.28c-0.05,0.28-0.12,0.56-0.19,0.83c-0.1,0.39-0.25,0.78-0.38,1.16
			c-0.01,0.04-0.03,0.09-0.04,0.14c-0.06,0.18-0.13,0.35-0.17,0.53c0.03-0.12,0.05-0.2,0.07-0.29c-0.01,0.02-0.01,0.03-0.02,0.05
			c-0.16,0.32-0.34,0.63-0.52,0.93c-0.13,0.22-0.28,0.43-0.42,0.65c-0.4,0.43-0.79,0.88-1.23,1.29c-0.05,0.05-0.19,0.16-0.32,0.28
			c-0.07,0.05-0.13,0.1-0.17,0.12c-0.37,0.24-1.33,0.57-1.67,0.92c-0.34,0.12-0.69,0.22-1.04,0.32c-0.29,0.08-0.59,0.13-0.88,0.2
			c-0.62,0.03-1.22,0.07-1.84,0.05c-0.2-0.01-0.45-0.05-0.67-0.06c-0.01,0-0.02,0-0.03,0c-0.65-0.13-1.27-0.33-1.9-0.53
			c-0.33-0.19-0.68-0.35-1.01-0.54c-0.62-0.36-1.22-0.75-1.8-1.17c-0.04-0.03-0.16-0.12-0.27-0.2c-0.18-0.15-0.39-0.31-0.46-0.37
			c-0.62-0.51-1.22-1.03-1.83-1.56c-2.65-2.29-6.91-2.8-9.48,0c-2.31,2.52-2.83,7.03,0,9.48c1.17,1.01,2.35,1.97,3.55,2.88
			c-1.28,2.25-2.55,4.51-3.89,6.73c-0.16,0.27-0.28,0.57-0.4,0.87c-4.25-1.5-8.76-2.44-13.51-2.69
			c-28.15-1.5-51.01,20.16-58.82,45.82c-4.43,14.57-2.65,30.32-7.61,44.72c-1.1,3.2-2.97,5.9-4.52,8.87
			c-1.82,3.47-2.84,7.15-3.19,11.04c-0.68,7.64,2.36,15.24,7.72,20.62c5.07,4.74,11.23,8.36,18.12,9.58
			c7.35,1.31,15.03,0.28,22.3-1.14c13.73-2.69,26.58-8.94,37.89-17.08c22.59-16.25,40.05-42.14,37.53-71.04
			C186.08,104.63,177.11,88.6,163.5,79.11z M149.77,175.99c-9.6,8.44-21.23,15.43-33.52,19.05c-6.54,1.93-13.52,3.28-20.37,3.17
			c-5.4-0.09-10.52-2.41-14.66-6.29c-3.08-3.09-4.35-7.26-3.82-10.93c0.34-2.39,1.05-3.96,2.21-5.91c1.72-2.88,3.2-5.79,4.42-8.92
			c4.44-11.43,4.1-23.92,5.89-35.87c3.24-21.67,16.83-41.94,39.51-46.09c20.48-3.75,38.57,11.44,43.5,30.57
			C178.85,137.83,166.81,160.99,149.77,175.99z"/>
		<path class="st3" d="M178.73,50.04C178.8,49.68,178.78,49.78,178.73,50.04L178.73,50.04z"/>
		<path class="st3" d="M178.11,52.32c0.08-0.28,0.04-0.35-0.14,0.37c0.04-0.08,0.07-0.16,0.1-0.24
			C178.08,52.41,178.09,52.36,178.11,52.32z"/>
	</g>
</g>
</svg>
