<?xml version="1.0" encoding="utf-8"?>
<!-- Generator: Adobe Illustrator 24.0.2, SVG Export Plug-In . SVG Version: 6.00 Build 0)  -->
<svg version="1.1" id="Capa_2_1_" xmlns="http://www.w3.org/2000/svg" xmlns:xlink="http://www.w3.org/1999/xlink" x="0px" y="0px"
	 viewBox="0 0 256 256" style="enable-background:new 0 0 256 256;" xml:space="preserve">
<style type="text/css">
	.st0{fill:#004444;}
	.st1{fill:url(#SVGID_1_);}
	.st2{fill:url(#SVGID_2_);}
	.st3{fill:#FFFFFF;}
</style>
<g>
	<g>
		<g>
			<circle class="st0" cx="128.2" cy="128.2" r="127.8"/>
		</g>
	</g>
	<linearGradient id="SVGID_1_" gradientUnits="userSpaceOnUse" x1="128.09" y1="88.7794" x2="128.8545" y2="0.866">
		<stop  offset="0" style="stop-color:#006468"/>
		<stop  offset="1" style="stop-color:#007C7C"/>
	</linearGradient>
	<path class="st1" d="M255.5,127.8c0,0.7,0,1.3,0,2C254.4,60.1,197.7,4,127.8,4S1.1,60.1,0,129.7c0-0.7,0-1.3,0-2
		C0,57.2,57.2,0,127.8,0S255.5,57.2,255.5,127.8z"/>
	<g>
		<radialGradient id="SVGID_2_" cx="128.2495" cy="128.2495" r="117.271" gradientUnits="userSpaceOnUse">
			<stop  offset="0" style="stop-color:#007C7C"/>
			<stop  offset="1" style="stop-color:#006468"/>
		</radialGradient>
		<circle class="st2" cx="128.2" cy="128.2" r="117.3"/>
	</g>
	<g>
		<path class="st3" d="M163.3,79.1c0-0.1,0.1-0.1,0.1-0.2c1.6-2.7,3.1-5.4,4.7-8.1c2.8,0.3,5.7,0,8.3-0.8c4-1.2,7.8-3.6,10.4-6.8
			c3-3.8,4.6-7.8,5.1-12.6c0.4-3.5-3.3-6.9-6.7-6.7c-3.9,0.2-6.3,3-6.7,6.7c0-0.2,0.1-0.4,0.1-0.6c0,0.1,0,0.2-0.1,0.3
			c-0.1,0.3-0.1,0.6-0.2,0.8c-0.1,0.4-0.2,0.8-0.4,1.2c0,0,0,0.1,0,0.1c-0.1,0.2-0.1,0.3-0.2,0.5c0-0.1,0.1-0.2,0.1-0.3c0,0,0,0,0,0
			c-0.2,0.3-0.3,0.6-0.5,0.9c-0.1,0.2-0.3,0.4-0.4,0.7c-0.4,0.4-0.8,0.9-1.2,1.3c-0.1,0.1-0.2,0.2-0.3,0.3c-0.1,0-0.1,0.1-0.2,0.1
			c-0.4,0.2-1.3,0.6-1.7,0.9c-0.3,0.1-0.7,0.2-1,0.3c-0.3,0.1-0.6,0.1-0.9,0.2c-0.6,0-1.2,0.1-1.8,0c-0.2,0-0.4-0.1-0.7-0.1
			c0,0,0,0,0,0c-0.6-0.1-1.3-0.3-1.9-0.5c-0.3-0.2-0.7-0.3-1-0.5c-0.6-0.4-1.2-0.8-1.8-1.2c0,0-0.2-0.1-0.3-0.2
			c-0.2-0.1-0.4-0.3-0.5-0.4c-0.6-0.5-1.2-1-1.8-1.6c-2.7-2.3-6.9-2.8-9.5,0c-2.3,2.5-2.8,7,0,9.5c1.2,1,2.3,2,3.5,2.9
			c-1.3,2.3-2.6,4.5-3.9,6.7c-0.2,0.3-0.3,0.6-0.4,0.9c-4.2-1.5-8.8-2.4-13.5-2.7c-28.1-1.5-51,20.2-58.8,45.8
			c-4.4,14.6-2.6,30.3-7.6,44.7c-1.1,3.2-3,5.9-4.5,8.9c-1.8,3.5-2.8,7.1-3.2,11c-0.7,7.6,2.4,15.2,7.7,20.6
			c5.1,4.7,11.2,8.4,18.1,9.6c7.3,1.3,15,0.3,22.3-1.1c13.7-2.7,26.6-8.9,37.9-17.1c22.6-16.3,40-42.1,37.5-71
			C185.8,104.6,176.9,88.6,163.3,79.1z M149.5,176c-9.6,8.4-21.2,15.4-33.5,19.1c-6.5,1.9-13.5,3.3-20.4,3.2
			c-5.4-0.1-10.5-2.4-14.7-6.3c-3.1-3.1-4.3-7.3-3.8-10.9c0.3-2.4,1-4,2.2-5.9c1.7-2.9,3.2-5.8,4.4-8.9c4.4-11.4,4.1-23.9,5.9-35.9
			c3.2-21.7,16.8-41.9,39.5-46.1c20.5-3.7,38.6,11.4,43.5,30.6C178.6,137.8,166.6,161,149.5,176z"/>
		<path class="st3" d="M178.5,50C178.6,49.7,178.5,49.8,178.5,50L178.5,50z"/>
		<path class="st3" d="M177.9,52.3c0.1-0.3,0-0.3-0.1,0.4c0-0.1,0.1-0.2,0.1-0.2C177.8,52.4,177.8,52.4,177.9,52.3z"/>
	</g>
</g>
</svg>
