<?xml version="1.0" encoding="utf-8"?>
<!-- Generator: Adobe Illustrator 24.1.3, SVG Export Plug-In . SVG Version: 6.00 Build 0)  -->
<svg version="1.1" id="Capa_1" xmlns="http://www.w3.org/2000/svg" xmlns:xlink="http://www.w3.org/1999/xlink" x="0px" y="0px"
	 viewBox="0 0 50 50" style="enable-background:new 0 0 50 50;" xml:space="preserve">
<style type="text/css">
	.st0{fill:#FFFFFF;}
</style>
<g>
	<path class="st0" d="M34.94,11.38c0.01-0.02,0.03-0.03,0.04-0.05c0.45-0.75,0.87-1.51,1.31-2.27c0.78,0.07,1.58,0,2.31-0.22
		c1.12-0.33,2.18-1,2.91-1.92c0.84-1.05,1.28-2.19,1.42-3.52c0.1-0.98-0.94-1.92-1.88-1.88c-1.1,0.05-1.77,0.83-1.88,1.88
		c0.01-0.06,0.02-0.12,0.02-0.16c0,0.02-0.01,0.05-0.02,0.08c-0.02,0.08-0.03,0.16-0.05,0.23c-0.03,0.11-0.07,0.22-0.11,0.33
		c0,0.01-0.01,0.02-0.01,0.04c-0.02,0.05-0.04,0.1-0.05,0.15c0.01-0.03,0.01-0.06,0.02-0.08c0,0,0,0.01-0.01,0.01
		c-0.05,0.09-0.09,0.18-0.15,0.26c-0.04,0.06-0.08,0.12-0.12,0.18C38.6,4.56,38.5,4.69,38.37,4.8c-0.02,0.01-0.05,0.05-0.09,0.08
		c-0.02,0.01-0.04,0.03-0.05,0.03c-0.1,0.07-0.37,0.16-0.47,0.26c-0.1,0.03-0.19,0.06-0.29,0.09c-0.08,0.02-0.16,0.04-0.25,0.06
		c-0.17,0.01-0.34,0.02-0.52,0.01c-0.05,0-0.12-0.01-0.19-0.02c0,0,0,0-0.01,0c-0.18-0.04-0.36-0.09-0.53-0.15
		c-0.09-0.05-0.19-0.1-0.28-0.15c-0.17-0.1-0.34-0.21-0.5-0.33c-0.01-0.01-0.04-0.03-0.08-0.06c-0.05-0.04-0.11-0.09-0.13-0.1
		c-0.17-0.14-0.34-0.29-0.51-0.44c-0.74-0.64-1.93-0.78-2.65,0c-0.65,0.7-0.79,1.97,0,2.65c0.33,0.28,0.66,0.55,0.99,0.81
		c-0.36,0.63-0.71,1.26-1.09,1.88c-0.05,0.07-0.08,0.16-0.11,0.24c-1.19-0.42-2.45-0.68-3.78-0.75
		c-7.88-0.42-14.28,5.64-16.47,12.83c-1.24,4.08-0.74,8.49-2.13,12.52c-0.31,0.9-0.83,1.65-1.27,2.48c-0.51,0.97-0.8,2-0.89,3.09
		c-0.19,2.14,0.66,4.27,2.16,5.77c1.42,1.33,3.14,2.34,5.07,2.68c2.06,0.37,4.21,0.08,6.24-0.32c3.84-0.75,7.44-2.5,10.61-4.78
		c6.32-4.55,11.21-11.8,10.51-19.89C41.26,18.53,38.75,14.04,34.94,11.38z M31.09,38.5c-2.69,2.36-5.94,4.32-9.38,5.33
		c-1.83,0.54-3.79,0.92-5.7,0.89c-1.51-0.02-2.95-0.68-4.11-1.76c-0.86-0.87-1.22-2.03-1.07-3.06c0.1-0.67,0.29-1.11,0.62-1.65
		c0.48-0.81,0.9-1.62,1.24-2.5c1.24-3.2,1.15-6.7,1.65-10.04c0.91-6.07,4.71-11.74,11.06-12.9c5.73-1.05,10.8,3.2,12.18,8.56
		C39.24,27.82,35.86,34.31,31.09,38.5z"/>
	<path class="st0" d="M39.2,3.24C39.22,3.14,39.22,3.17,39.2,3.24L39.2,3.24z"/>
	<path class="st0" d="M39.03,3.88c0.02-0.08,0.01-0.1-0.04,0.1c0.01-0.02,0.02-0.04,0.03-0.07C39.02,3.91,39.02,3.89,39.03,3.88z"/>
</g>
</svg>
