<?xml version="1.0" encoding="utf-8"?>
<!-- Generator: Adobe Illustrator 24.1.3, SVG Export Plug-In . SVG Version: 6.00 Build 0)  -->
<svg version="1.1" id="Capa_1" xmlns="http://www.w3.org/2000/svg" xmlns:xlink="http://www.w3.org/1999/xlink" x="0px" y="0px"
	 viewBox="0 0 50 50" style="enable-background:new 0 0 50 50;" xml:space="preserve">
<style type="text/css">
	.st0{fill:#1AA1A5;}
</style>
<path class="st0" d="M24.89,3.51c-0.16,0-0.32,0.04-0.46,0.14l-2.72,1.71c0.86,0.48,1.98,0.76,3.18,0.76c1.19,0,2.28-0.28,3.15-0.76
	l-2.69-1.71C25.21,3.55,25.06,3.51,24.89,3.51z M29.65,6.36l-0.33,0.27c-0.03,0.02-0.05,0.03-0.08,0.05
	c-1.17,0.75-2.72,1.17-4.35,1.17c-1.63,0-3.17-0.42-4.35-1.17l-0.43-0.3l-10,6.36c1.14,0.79,1.74,1.81,1.74,2.93
	c0,1.19-0.69,2.28-1.93,3.07l-0.41,0.22l10.73,6.79l0.35-0.24c1.17-0.74,2.69-1.14,4.29-1.14c1.6,0,3.11,0.41,4.27,1.14
	c0,0,0.19,0.09,0.43,0.24l10.68-6.74l-0.41-0.24c-1.26-0.8-1.93-1.9-1.93-3.1c0-1.12,0.61-2.16,1.71-2.93L29.65,6.36z M24.89,10.71
	l1.77,1.11l-2.04,1.3l-1.77-1.11L24.89,10.71z M28.29,12.86l2.23,1.44l-2.04,1.3l-2.23-1.44L28.29,12.86z M21.23,13.05l1.79,1.14
	l-2.07,1.3l-1.82-1.14L21.23,13.05z M8.45,13.78l-3.56,2.26l2.93,1.88l1.22-0.65c0.36-0.23,1.06-0.8,1.06-1.58
	c0-0.77-0.7-1.34-1.11-1.6L8.45,13.78z M41.31,13.81l-0.54,0.27c-0.42,0.28-1.09,0.84-1.09,1.6c0,0.78,0.72,1.36,1.14,1.63
	l1.09,0.68l2.99-1.88L41.31,13.81z M24.62,15.19l2.26,1.44l-2.04,1.3l-2.26-1.41L24.62,15.19z M32.15,15.33l1.93,1.22l-2.04,1.3
	l-1.93-1.22L32.15,15.33z M17.5,15.41l1.82,1.11l-1.82,1.17l-1.79-1.14L17.5,15.41z M20.95,17.56l2.26,1.41l-1.85,1.2l-2.23-1.44
	L20.95,17.56z M28.48,17.66l1.93,1.22l-2.01,1.28l-1.93-1.2L28.48,17.66z M5.06,18.07l1.58,15.76c0.02,0.25,0.15,0.48,0.35,0.63
	l7.5,5.3l-0.82-16.14L5.06,18.07z M44.73,18.18l-8.59,5.46l-0.9,16.17l7.55-5.38c0.2-0.15,0.33-0.35,0.35-0.6L44.73,18.18z
	 M24.84,20l1.93,1.2l-1.88,1.2l-1.9-1.2L24.84,20z M15.46,24.76l0.82,16.3l7.74,5.52V30.25L15.46,24.76z M34.3,24.81l-8.53,5.43
	v16.33l7.66-5.46L34.3,24.81z M24.89,26.12c-1.11,0-2.18,0.26-3.02,0.71l3.02,1.9l3.02-1.9C27.06,26.37,26,26.12,24.89,26.12z"/>
</svg>
