<?xml version="1.0" encoding="utf-8"?>
<!-- Generator: Adobe Illustrator 24.1.3, SVG Export Plug-In . SVG Version: 6.00 Build 0)  -->
<svg version="1.1" id="Layer_1" xmlns="http://www.w3.org/2000/svg" xmlns:xlink="http://www.w3.org/1999/xlink" x="0px" y="0px"
	 viewBox="0 0 155.8 109.2" style="enable-background:new 0 0 155.8 109.2;" xml:space="preserve">
<style type="text/css">
	.st0{fill:#FFFFFF;}
</style>
<path class="st0" d="M152.4,17.1c-1.8-6.7-7.1-12-13.8-13.8C126.5,0,77.8,0,77.8,0S29.1,0.1,17,3.4C10.3,5.2,5,10.5,3.2,17.2
	C0,29.3,0,54.6,0,54.6s0,25.3,3.3,37.5c1.8,6.7,7.1,12,13.8,13.8c12.1,3.3,60.8,3.3,60.8,3.3s48.7,0,60.8-3.3
	c6.7-1.8,12-7.1,13.8-13.8c3.3-12.1,3.3-37.5,3.3-37.5S155.7,29.3,152.4,17.1z M62.3,78V31.2l40.4,23.4L62.3,78z"/>
</svg>
